<svg width="135" height="22" viewBox="0 0 135 22" fill="none" xmlns="http://www.w3.org/2000/svg">
<path d="M6.336 11.272C6.336 13.1493 6.51733 14.4933 6.88 15.304C7.264 16.0933 7.88267 16.488 8.736 16.488C9.58933 16.488 10.7947 16.2853 12.352 15.88L13.184 20.392C11.4987 21.0107 9.80267 21.32 8.096 21.32C5.536 21.32 3.66933 20.4773 2.496 18.792C1.344 17.0853 0.768 14.5573 0.768 11.208C0.768 7.83733 1.376 5.26667 2.592 3.496C3.808 1.704 5.792 0.807999 8.544 0.807999C10.1653 0.807999 11.712 1.14933 13.184 1.832L12.32 6.792C10.656 6.23733 9.49333 5.96 8.832 5.96C7.89333 5.96 7.24267 6.376 6.88 7.208C6.51733 8.01867 6.336 9.37333 6.336 11.272ZM19.557 6.792C20.7303 5.78933 21.9997 5.288 23.365 5.288C24.7303 5.288 25.6903 5.61867 26.245 6.28C26.821 6.92 27.109 7.89067 27.109 9.192V21H21.669V11.016C21.669 10.4827 21.4343 10.216 20.965 10.216C20.3677 10.216 19.8663 10.3653 19.461 10.664V21H14.085V0.487999H19.429V6.792H19.557ZM34.4305 21H29.1505V5.832H34.4305V21ZM29.5665 4.616C29.1185 4.232 28.8945 3.61333 28.8945 2.76C28.8945 1.90667 29.1185 1.27733 29.5665 0.872C30.0145 0.466667 30.7505 0.264 31.7745 0.264C32.7985 0.264 33.5345 0.466667 33.9825 0.872C34.4305 1.27733 34.6545 1.90667 34.6545 2.76C34.6545 3.592 34.4305 4.21067 33.9825 4.616C33.5345 5 32.7985 5.192 31.7745 5.192C30.7505 5.192 30.0145 5 29.5665 4.616ZM43.148 9.96C42.5293 9.96 42.1133 10.248 41.9 10.824C41.6867 11.3787 41.58 12.2533 41.58 13.448C41.58 14.6427 41.676 15.5067 41.868 16.04C42.0813 16.5733 42.508 16.84 43.148 16.84C43.8093 16.84 44.6627 16.7227 45.708 16.488L46.284 20.584C44.812 21.0747 43.5 21.32 42.348 21.32C40.3213 21.32 38.7853 20.6373 37.74 19.272C36.716 17.9067 36.204 15.9973 36.204 13.544C36.204 11.0907 36.7373 9.10667 37.804 7.592C38.8707 6.056 40.4173 5.288 42.444 5.288C43.9587 5.288 45.324 5.544 46.54 6.056L45.964 10.76C44.7267 10.2267 43.788 9.96 43.148 9.96ZM60.7073 21H54.7873L52.8353 15.112H52.7073V21H47.4913V0.487999H52.7713V11.784H52.8993L55.2353 5.672H60.8353L57.6033 13.32L60.7073 21ZM68.0475 9.864C67.4928 9.864 67.1302 10.056 66.9595 10.44C66.7888 10.8027 66.7035 11.368 66.7035 12.136H69.4875V11.368C69.4875 10.3653 69.0075 9.864 68.0475 9.864ZM68.1755 5.288C70.3728 5.288 71.9408 5.82133 72.8795 6.888C73.8395 7.93333 74.3195 9.43733 74.3195 11.4C74.3195 11.656 74.2448 12.808 74.0955 14.856H66.7995C66.7995 16.456 67.5355 17.256 69.0075 17.256C69.7115 17.256 71.0875 17.0107 73.1355 16.52L73.5835 20.488C71.7915 21.0427 69.9995 21.32 68.2075 21.32C66.0102 21.32 64.3248 20.6053 63.1515 19.176C61.9782 17.7253 61.3915 15.7627 61.3915 13.288C61.3915 7.95467 63.6528 5.288 68.1755 5.288ZM81.1478 6.792C82.3211 5.78933 83.6118 5.288 85.0198 5.288C86.4278 5.288 87.4091 5.61867 87.9638 6.28C88.5398 6.92 88.8278 7.89067 88.8278 9.192V21H83.3878V11.016C83.3878 10.4827 83.1531 10.216 82.6838 10.216C82.0864 10.216 81.5851 10.3653 81.1798 10.664V21H75.8038V5.672H80.6998L81.0198 6.792H81.1478Z" fill="#404346"/>
<path d="M98.0373 14.504H96.5653V21H91.1893V1.128H97.6853C99.9679 1.128 101.664 1.65067 102.773 2.696C103.883 3.74133 104.437 5.45867 104.437 7.848C104.437 10.2373 103.915 11.944 102.869 12.968C101.824 13.992 100.213 14.504 98.0373 14.504ZM98.6453 10.184C98.8373 9.82133 98.9333 9.17067 98.9333 8.232C98.9333 7.29333 98.8266 6.632 98.6133 6.248C98.3999 5.864 97.9733 5.672 97.3333 5.672H96.5653V10.728H97.4613C98.0586 10.728 98.4533 10.5467 98.6453 10.184ZM105.329 13.288C105.329 10.472 105.862 8.43467 106.929 7.176C108.017 5.91733 109.702 5.288 111.985 5.288C114.289 5.288 115.964 5.90667 117.009 7.144C118.054 8.38133 118.577 10.4187 118.577 13.256C118.577 16.072 118.065 18.12 117.041 19.4C116.017 20.68 114.342 21.32 112.017 21.32C109.692 21.32 107.996 20.68 106.929 19.4C105.862 18.12 105.329 16.0827 105.329 13.288ZM113.009 10.248C112.881 9.82133 112.54 9.608 111.985 9.608C111.43 9.608 111.078 9.82133 110.929 10.248C110.78 10.6747 110.705 11.5707 110.705 12.936V13.704C110.705 15.2187 110.78 16.2 110.929 16.648C111.078 17.096 111.42 17.32 111.953 17.32C112.508 17.32 112.86 17.096 113.009 16.648C113.158 16.2 113.233 15.2827 113.233 13.896V12.968C113.233 11.5813 113.158 10.6747 113.009 10.248ZM120.241 17.48V0.487999H125.521V15.784C125.521 16.1467 125.596 16.4027 125.745 16.552C125.916 16.7013 126.204 16.776 126.609 16.776L126.193 21.32H124.433C123.025 21.32 121.969 21.032 121.265 20.456C120.583 19.8587 120.241 18.8667 120.241 17.48ZM127.71 17.48V0.487999H132.99V15.784C132.99 16.1467 133.065 16.4027 133.214 16.552C133.385 16.7013 133.673 16.776 134.078 16.776L133.662 21.32H131.902C130.494 21.32 129.438 21.032 128.734 20.456C128.051 19.8587 127.71 18.8667 127.71 17.48Z" fill="#EF145B"/>
</svg>
